<?xml version="1.0" encoding="utf-8"?>
<!-- Generator: Adobe Illustrator 16.0.0, SVG Export Plug-In . SVG Version: 6.00 Build 0)  -->
<!DOCTYPE svg PUBLIC "-//W3C//DTD SVG 1.1//EN" "http://www.w3.org/Graphics/SVG/1.1/DTD/svg11.dtd">
<svg version="1.1" id="Layer_1" xmlns="http://www.w3.org/2000/svg" xmlns:xlink="http://www.w3.org/1999/xlink" x="0px" y="0px"
	 width="20px" height="20px" viewBox="0 0 20 20" enable-background="new 0 0 20 20" xml:space="preserve">
<path fill="#EEEEEE" d="M13.041,3.501l-1.63-0.002c-1.832,0-3.016,1.223-3.016,3.117v1.438h-1.64C6.614,8.054,6.5,8.169,6.5,8.312
	v2.082c0,0.144,0.115,0.259,0.256,0.259h1.64v5.255c0,0.143,0.114,0.258,0.257,0.258h2.139c0.141,0,0.256-0.115,0.256-0.258v-5.255
	h1.917c0.142,0,0.256-0.115,0.256-0.259l0.001-2.082c0-0.067-0.027-0.135-0.075-0.183s-0.113-0.075-0.182-0.075h-1.917V6.835
	c0-0.585,0.139-0.883,0.896-0.883h1.099c0.142,0,0.256-0.116,0.256-0.259V3.76C13.297,3.617,13.183,3.501,13.041,3.501z"/>
</svg>
