<?xml version="1.0" encoding="utf-8"?>
<!-- Generator: Adobe Illustrator 16.0.0, SVG Export Plug-In . SVG Version: 6.00 Build 0)  -->
<!DOCTYPE svg PUBLIC "-//W3C//DTD SVG 1.1//EN" "http://www.w3.org/Graphics/SVG/1.1/DTD/svg11.dtd">
<svg version="1.1" id="Layer_1" xmlns="http://www.w3.org/2000/svg" xmlns:xlink="http://www.w3.org/1999/xlink" x="0px" y="0px"
	 width="20px" height="20px" viewBox="0 0 20 20" enable-background="new 0 0 20 20" xml:space="preserve">
<path fill="#EEEEEE" d="M15.271,2.979h-4.22c-1.106,0-2.499,0.157-3.667,1.084C6.503,4.794,6.074,5.8,6.074,6.708
	c0,1.54,1.229,3.1,3.401,3.1c0.205,0,0.429-0.02,0.656-0.04c-0.102,0.236-0.206,0.434-0.206,0.77c0,0.612,0.328,0.987,0.615,1.342
	c-0.921,0.06-2.643,0.157-3.913,0.907c-1.209,0.691-1.578,1.698-1.578,2.408c0,1.461,1.434,2.824,4.404,2.824
	c3.524,0,5.389-1.875,5.389-3.732c0-1.36-0.818-2.033-1.721-2.763l-0.737-0.553c-0.225-0.177-0.532-0.414-0.532-0.849
	c0-0.434,0.308-0.71,0.573-0.967c0.86-0.651,1.722-1.341,1.722-2.802c0-1.501-0.984-2.291-1.455-2.665h1.271L15.271,2.979z
	 M13.471,15.058c0,1.224-1.046,2.131-3.013,2.131c-2.191,0-3.606-1.006-3.606-2.407c0-1.402,1.312-1.874,1.762-2.032
	c0.861-0.277,1.967-0.315,2.152-0.315c0.205,0,0.307,0,0.472,0.019C12.795,13.518,13.471,14.052,13.471,15.058z M11.831,8.703
	c-0.328,0.315-0.881,0.552-1.395,0.552c-1.761,0-2.56-2.191-2.56-3.513c0-0.513,0.103-1.046,0.45-1.459
	C8.656,3.886,9.229,3.63,9.762,3.63c1.7,0,2.581,2.209,2.581,3.631C12.343,7.617,12.302,8.247,11.831,8.703z"/>
</svg>
