<?xml version="1.0" encoding="utf-8"?>
<!-- Generator: Adobe Illustrator 16.0.0, SVG Export Plug-In . SVG Version: 6.00 Build 0)  -->
<!DOCTYPE svg PUBLIC "-//W3C//DTD SVG 1.1//EN" "http://www.w3.org/Graphics/SVG/1.1/DTD/svg11.dtd">
<svg version="1.1" id="Layer_1" xmlns="http://www.w3.org/2000/svg" xmlns:xlink="http://www.w3.org/1999/xlink" x="0px" y="0px"
	 width="20px" height="20px" viewBox="0 0 20 20" enable-background="new 0 0 20 20" xml:space="preserve">
<path fill="#EEEEEE" d="M15.987,3.669c-0.342-0.337-0.752-0.505-1.23-0.505H4.648c-0.479,0-0.889,0.168-1.23,0.505
	C3.075,4.004,2.904,4.405,2.904,4.875v9.914c0,0.47,0.171,0.871,0.514,1.207c0.342,0.335,0.752,0.503,1.23,0.503h10.108
	c0.478,0,0.889-0.168,1.23-0.503c0.343-0.336,0.514-0.737,0.514-1.207V4.875C16.501,4.405,16.33,4.004,15.987,3.669z M7.786,7.97
	C8.32,7.464,8.962,7.21,9.711,7.21c0.756,0,1.4,0.254,1.935,0.76s0.802,1.119,0.802,1.837c0,0.717-0.268,1.329-0.802,1.835
	c-0.534,0.507-1.179,0.761-1.935,0.761c-0.749,0-1.391-0.254-1.925-0.761c-0.534-0.506-0.801-1.118-0.801-1.835
	C6.985,9.089,7.252,8.476,7.786,7.97z M14.961,14.434c0,0.15-0.054,0.275-0.159,0.378c-0.106,0.102-0.233,0.151-0.382,0.151H4.958
	c-0.153,0-0.282-0.05-0.385-0.151c-0.104-0.102-0.155-0.228-0.155-0.378V8.808h1.248C5.548,9.173,5.489,9.552,5.489,9.945
	c0,1.111,0.413,2.059,1.239,2.843s1.82,1.177,2.982,1.177c0.768,0,1.476-0.18,2.125-0.538c0.649-0.359,1.162-0.847,1.54-1.463
	c0.378-0.617,0.567-1.29,0.567-2.019c0-0.394-0.06-0.772-0.178-1.138h1.195V14.434L14.961,14.434z M14.961,6.681
	c0,0.168-0.06,0.31-0.178,0.426C14.666,7.222,14.521,7.28,14.35,7.28h-1.54c-0.171,0-0.315-0.059-0.434-0.174
	c-0.118-0.116-0.177-0.258-0.177-0.426V5.248c0-0.162,0.059-0.303,0.177-0.421c0.118-0.119,0.263-0.179,0.434-0.179h1.54
	c0.172,0,0.316,0.06,0.434,0.179c0.118,0.118,0.178,0.259,0.178,0.421V6.681z"/>
</svg>
