<?xml version="1.0" encoding="utf-8"?>
<!-- Generator: Adobe Illustrator 16.0.0, SVG Export Plug-In . SVG Version: 6.00 Build 0)  -->
<!DOCTYPE svg PUBLIC "-//W3C//DTD SVG 1.1//EN" "http://www.w3.org/Graphics/SVG/1.1/DTD/svg11.dtd">
<svg version="1.1" id="Layer_1" xmlns="http://www.w3.org/2000/svg" xmlns:xlink="http://www.w3.org/1999/xlink" x="0px" y="0px"
	 width="20px" height="20px" viewBox="0 0 20 20" enable-background="new 0 0 20 20" xml:space="preserve">
<path fill="#C1CBD4" d="M15.24,5.983c-0.057-0.213-0.172-0.441-0.258-0.64C13.961,2.883,11.729,2,9.926,2
	C7.512,2,4.854,3.622,4.5,6.965v0.683c0,0.027,0.009,0.284,0.023,0.413c0.199,1.592,1.453,3.285,2.39,4.877
	c1.008,1.706,2.053,3.385,3.089,5.063c0.639-1.095,1.275-2.205,1.899-3.271c0.17-0.313,0.367-0.627,0.538-0.925
	c0.113-0.199,0.331-0.397,0.43-0.583c1.008-1.849,2.63-3.713,2.63-5.548V6.922C15.5,6.724,15.254,6.025,15.24,5.983z M9.97,9.411
	c-0.71,0-1.486-0.355-1.869-1.337c-0.057-0.156-0.052-0.47-0.052-0.499v-0.44c0-1.252,1.06-1.819,1.983-1.819
	c1.135,0,2.014,0.91,2.014,2.048C12.045,8.502,11.105,9.411,9.97,9.411z"/>
</svg>
