<?xml version="1.0" encoding="utf-8"?>
<!-- Generator: Adobe Illustrator 16.0.0, SVG Export Plug-In . SVG Version: 6.00 Build 0)  -->
<!DOCTYPE svg PUBLIC "-//W3C//DTD SVG 1.1//EN" "http://www.w3.org/Graphics/SVG/1.1/DTD/svg11.dtd">
<svg version="1.1" id="Layer_1" xmlns="http://www.w3.org/2000/svg" xmlns:xlink="http://www.w3.org/1999/xlink" x="0px" y="0px"
	 width="20px" height="20px" viewBox="0 0 20 20" enable-background="new 0 0 20 20" xml:space="preserve">
<path fill="#EEF3F8" d="M16.334,13.538c-0.002-0.574-0.391-0.59-0.855-0.781l-2.166-0.901c-0.039-0.015-0.074-0.031-0.111-0.049
	v-0.001c-0.387-0.181-0.727-0.432-0.85-0.609l-0.006-0.006l-0.002-0.003c-0.006-0.011-0.014-0.022-0.021-0.035l-0.004-0.009
	l-0.002-0.002l-0.004-0.007l0,0c-0.057-0.089-0.115-0.13-0.166-0.111l-0.002,0.001h-0.002v0.001l-0.002,0.001h-0.002l-0.004,0.002
	c-0.059,0.031-0.047-0.002-0.07-0.07c-0.059-0.164-0.156-0.478-0.17-0.522c-0.023-0.086-0.084,0.136-0.07-0.104l0.025-0.431
	c0.041-0.044,0.072-0.082,0.094-0.106c0.143-0.168,0.152-0.611,0.223-0.719c0.07-0.107,0.213-0.131,0.354-0.634
	c0.141-0.502,0.314-1.221,0.133-1.232c-0.045-0.005-0.096,0.027-0.148,0.075c0.031-0.186,0.1-0.604,0.115-0.913
	c0.02-0.407-0.045-1.452-0.268-1.833C12.211,4.3,11.93,4.063,11.65,3.878c-0.168-0.111-0.336-0.203-0.473-0.266
	c-0.409-0.187-1.697-0.101-2.132,0C8.548,3.728,8.2,4.051,7.978,4.434C7.756,4.817,7.657,5.966,7.676,6.373
	c0.01,0.183,0.115,0.491,0.142,0.678C7.833,7.149,7.847,7.15,7.859,7.219C7.84,7.212,7.822,7.208,7.806,7.21
	C7.624,7.222,7.796,7.94,7.937,8.442C8.079,8.946,8.22,8.969,8.291,9.077c0.071,0.107,0.081,0.55,0.223,0.718
	C8.536,9.821,8.57,9.86,8.612,9.907l0.027,0.352l0.048,0.196c-0.022-0.057-0.065-0.093-0.085-0.02
	c-0.061,0.192-0.122,0.385-0.183,0.577c-0.007-0.01-0.017-0.016-0.028-0.017c-0.059-0.053-0.138-0.007-0.211,0.118
	c-0.107,0.185-0.461,0.451-0.872,0.645l-0.006,0.022l-0.006,0.022l-0.002,0.01c-0.032,0.015-0.065,0.029-0.098,0.042L5.03,12.757
	c-0.464,0.193-0.853,0.207-0.855,0.782l-0.358,1.958h13L16.334,13.538z"/>
</svg>
