<?xml version="1.0" encoding="utf-8"?>
<!-- Generator: Adobe Illustrator 16.0.0, SVG Export Plug-In . SVG Version: 6.00 Build 0)  -->
<!DOCTYPE svg PUBLIC "-//W3C//DTD SVG 1.1//EN" "http://www.w3.org/Graphics/SVG/1.1/DTD/svg11.dtd">
<svg version="1.1" id="Layer_1" xmlns="http://www.w3.org/2000/svg" xmlns:xlink="http://www.w3.org/1999/xlink" x="0px" y="0px"
	 width="20px" height="20px" viewBox="0 0 20 20" enable-background="new 0 0 20 20" xml:space="preserve">
<g>
	<path id="YouTube_2_" fill="#EEEEEE" d="M14.441,13.598H13.54l0.004-0.527c0-0.229,0.19-0.427,0.423-0.427h0.057
		c0.242,0,0.436,0.198,0.436,0.427L14.441,13.598z M11.049,12.471c-0.229,0-0.416,0.158-0.416,0.346v2.554
		c0,0.186,0.186,0.346,0.416,0.346c0.23,0,0.419-0.16,0.419-0.346v-2.554C11.468,12.629,11.279,12.471,11.049,12.471z
		 M16.562,11.041V15.9c0,1.168-1.007,2.127-2.249,2.127H5.069c-1.24,0-2.25-0.959-2.25-2.127v-4.859c0-1.167,1.01-2.118,2.25-2.118
		h9.243C15.555,8.923,16.562,9.874,16.562,11.041z M5.686,16.432v-5.121h1.148v-0.76l-3.057-0.003v0.749h0.955v5.137L5.686,16.432
		L5.686,16.432z M9.12,12.076H8.166v2.73c0,0.401,0.024,0.596,0,0.668c-0.081,0.209-0.427,0.436-0.563,0.024
		c-0.024-0.081-0.005-0.291-0.005-0.669v-2.754H6.644l0.004,2.715c0,0.41-0.008,0.724,0.004,0.86
		c0.021,0.249,0.012,0.54,0.241,0.709c0.431,0.305,1.256-0.05,1.462-0.492v0.563H9.12V12.076L9.12,12.076z M12.176,15.208v-2.282
		c0-0.863-0.648-1.385-1.53-0.686l0.003-1.69H9.691v5.85l0.781-0.016l0.076-0.362C11.548,16.939,12.176,16.311,12.176,15.208z
		 M15.167,14.903l-0.715,0.007c0,0.025,0,0.057,0,0.099v0.402c0,0.209-0.179,0.386-0.395,0.386H13.92
		c-0.217,0-0.39-0.177-0.39-0.386v-0.05v-0.443v-0.57h1.639V13.73c0-0.442-0.018-0.901-0.049-1.155
		c-0.121-0.816-1.264-0.942-1.846-0.528c-0.186,0.131-0.319,0.303-0.402,0.54c-0.08,0.233-0.121,0.557-0.121,0.967v1.356
		C12.756,17.165,15.49,16.843,15.167,14.903z M11.491,7.535c0.053,0.12,0.129,0.216,0.229,0.29c0.104,0.072,0.238,0.112,0.396,0.112
		c0.136,0,0.258-0.041,0.363-0.121c0.106-0.077,0.194-0.189,0.271-0.342l-0.023,0.379h1.066V3.319h-0.837v3.527
		c0,0.194-0.156,0.346-0.353,0.346c-0.189,0-0.353-0.157-0.353-0.346V3.319h-0.869v3.056c0,0.387,0.008,0.648,0.016,0.781
		C11.411,7.284,11.447,7.414,11.491,7.535z M8.267,4.974c0-0.435,0.037-0.773,0.109-1.019c0.068-0.241,0.201-0.439,0.391-0.588
		c0.188-0.148,0.426-0.221,0.72-0.221c0.246,0,0.46,0.052,0.636,0.141c0.173,0.101,0.311,0.221,0.403,0.375
		c0.104,0.153,0.17,0.311,0.202,0.472c0.037,0.161,0.052,0.411,0.052,0.736v1.152c0,0.418-0.012,0.729-0.052,0.926
		c-0.028,0.198-0.098,0.379-0.206,0.548c-0.105,0.169-0.243,0.294-0.411,0.374C9.946,7.959,9.753,7.995,9.53,7.995
		c-0.243,0-0.443-0.036-0.612-0.104C8.745,7.818,8.617,7.718,8.524,7.576C8.431,7.439,8.363,7.267,8.327,7.074
		c-0.041-0.202-0.061-0.5-0.061-0.898L8.267,4.974L8.267,4.974z M9.1,6.773c0,0.257,0.193,0.463,0.423,0.463
		c0.233,0,0.423-0.206,0.423-0.463V4.361c0-0.253-0.193-0.463-0.423-0.463C9.289,3.898,9.1,4.108,9.1,4.361V6.773z M6.149,7.993
		h1.006L7.16,4.518l1.184-2.975H7.248L6.616,3.75l-0.64-2.214H4.889l1.261,2.984V7.993z"/>
</g>
</svg>
